<?xml version="1.0" encoding="UTF-8" standalone="no"?>
<!-- Created with Inkscape (http://www.inkscape.org/) -->

<svg
   xmlns:dc="http://purl.org/dc/elements/1.1/"
   xmlns:cc="http://creativecommons.org/ns#"
   xmlns:rdf="http://www.w3.org/1999/02/22-rdf-syntax-ns#"
   xmlns:svg="http://www.w3.org/2000/svg"
   xmlns="http://www.w3.org/2000/svg"
   xmlns:sodipodi="http://sodipodi.sourceforge.net/DTD/sodipodi-0.dtd"
   xmlns:inkscape="http://www.inkscape.org/namespaces/inkscape"
   width="40"
   height="40"
   viewBox="0 0 40 40"
   id="svg2"
   version="1.1"
   inkscape:version="0.91 r13725"
   sodipodi:docname="Bitbucket Logo.svg"
   inkscape:export-filename="/Users/ratface/Sites/robruana.github.io/images/bitbucket-logo_2x.png"
   inkscape:export-xdpi="180"
   inkscape:export-ydpi="180">
  <defs
     id="defs4" />
  <sodipodi:namedview
     id="base"
     pagecolor="#808080"
     bordercolor="#666666"
     borderopacity="1.0"
     inkscape:pageopacity="0"
     inkscape:pageshadow="2"
     inkscape:zoom="11.313709"
     inkscape:cx="7.8122935"
     inkscape:cy="17.690536"
     inkscape:document-units="px"
     inkscape:current-layer="g4139"
     showgrid="false"
     showguides="true"
     inkscape:guide-bbox="true"
     units="px"
     inkscape:window-width="1440"
     inkscape:window-height="851"
     inkscape:window-x="0"
     inkscape:window-y="1"
     inkscape:window-maximized="1"
     inkscape:snap-bbox="true"
     inkscape:bbox-paths="true"
     inkscape:bbox-nodes="true"
     inkscape:snap-bbox-edge-midpoints="true"
     inkscape:snap-bbox-midpoints="true"
     inkscape:object-paths="true"
     inkscape:snap-intersection-paths="true"
     inkscape:object-nodes="true"
     inkscape:snap-smooth-nodes="true"
     inkscape:snap-midpoints="true" />
  <metadata
     id="metadata7">
    <rdf:RDF>
      <cc:Work
         rdf:about="">
        <dc:format>image/svg+xml</dc:format>
        <dc:type
           rdf:resource="http://purl.org/dc/dcmitype/StillImage" />
        <dc:title />
      </cc:Work>
    </rdf:RDF>
  </metadata>
  <g
     inkscape:label="Logo"
     inkscape:groupmode="layer"
     id="g4139"
     transform="translate(0,-1012.3622)"
     style="display:inline">
    <path
       id="path4280"
       style="opacity:1;fill:#ffffff;fill-opacity:1;fill-rule:nonzero;stroke:none;stroke-width:2;stroke-linecap:round;stroke-linejoin:round;stroke-miterlimit:4;stroke-dasharray:none;stroke-opacity:1"
       d="m 12.217954,1037.9613 c 0.164452,0 0.296387,0.116 0.296387,0.116 c 0,0 2.666591,2.112 7.486325,2.1122 c 4.81956,-2e-4 7.48601,-2.1122 7.48601,-2.1122 c 0,0 0.13208,-0.116 0.29671,-0.116 c 0.19649,0 0.38314,0.1319 0.38314,0.4235 c 0,0.031 -0.003,0.062 -0.009,0.092 c -0.41388,2.2152 -0.71659,3.7867 -0.7697,4.026 c -0.36129,1.6295 -3.54866,2.8594 -7.38753,2.8594 l -3e-4,0 c -3.838692,0 -7.026234,-1.2299 -7.387534,-2.8594 c -0.05311,-0.2391 -0.355331,-1.8108 -0.769205,-4.026 c -0.0057,-0.03 -0.0086,-0.061 -0.0086,-0.092 c 0,-0.2916 0.186305,-0.4235 0.382975,-0.4235 z m 7.778972,-7.2735 a 1.7250651,1.7250651 0 0 1 1.72526,1.725 a 1.7250651,1.7250651 0 0 1 -1.72526,1.7247 a 1.7250651,1.7250651 0 0 1 -1.72493,-1.7247 a 1.7250651,1.7250651 0 0 1 1.72493,-1.725 z m 0.003,-10.326 c -5.961167,0 -10.8286125,1.6027 -10.8286125,3.5926 c 0,0.5242 1.2997675,8.0392 1.8154285,11.0196 c 0.23119,1.3366 3.685284,3.2963 9.010414,3.2963 l 0.006,-0.016 l 0,0.016 c 5.32496,0 8.77891,-1.9597 9.0101,-3.2963 c 0.51566,-2.9804 1.81543,-10.4954 1.81543,-11.0196 c 2e-4,-1.9897 -4.86713,-3.5926 -10.82829,-3.5926 z m 0.003,1.752 c 3.83002,0.01 6.93386,0.6714 6.93262,1.4866 c -10e-4,0.8152 -3.10781,1.4702 -6.93783,1.4642 c -3.830013,-0.01 -6.933368,-0.6713 -6.932126,-1.4863 c 0.0012,-0.815 3.10732,-1.4707 6.937336,-1.4645 z m -0.003,6.8577 c 1.90102,0 3.44222,1.541 3.44222,3.4422 c 0,1.9009 -1.5412,3.4423 -3.44222,3.4423 c -1.90102,0 -3.44222,-1.5414 -3.44222,-3.4423 c 0,-1.9012 1.5412,-3.4422 3.44222,-3.4422 z"
       inkscape:connector-curvature="0" />
    <circle
       style="opacity:1;fill:none;fill-opacity:1;fill-rule:nonzero;stroke:#ffffff;stroke-width:1.25;stroke-linecap:round;stroke-linejoin:round;stroke-miterlimit:4;stroke-dasharray:none;stroke-opacity:1"
       id="path4136"
       cx="20"
       cy="1032.3622"
       r="19.375" />
  </g>
</svg>
