<?xml version="1.0" encoding="UTF-8" standalone="no"?>
<!-- Created with Inkscape (http://www.inkscape.org/) -->

<svg
   xmlns:dc="http://purl.org/dc/elements/1.1/"
   xmlns:cc="http://creativecommons.org/ns#"
   xmlns:rdf="http://www.w3.org/1999/02/22-rdf-syntax-ns#"
   xmlns:svg="http://www.w3.org/2000/svg"
   xmlns="http://www.w3.org/2000/svg"
   xmlns:sodipodi="http://sodipodi.sourceforge.net/DTD/sodipodi-0.dtd"
   xmlns:inkscape="http://www.inkscape.org/namespaces/inkscape"
   width="50"
   height="50"
   id="svg2"
   version="1.1"
   inkscape:version="0.91 r13725"
   sodipodi:docname="ChaosClock Logo.svg"
   inkscape:export-xdpi="180"
   inkscape:export-ydpi="180"
   inkscape:export-filename="/Users/ratface/Sites/robruana.github.io/images/chaosclock-logo_2x.png">
  <defs
     id="defs4" />
  <sodipodi:namedview
     id="base"
     pagecolor="#808080"
     bordercolor="#666666"
     borderopacity="1.0"
     inkscape:pageopacity="0"
     inkscape:pageshadow="2"
     inkscape:zoom="10.795045"
     inkscape:cx="-4.1348151"
     inkscape:cy="17.342002"
     inkscape:document-units="px"
     inkscape:current-layer="g4160"
     showgrid="false"
     showguides="true"
     inkscape:guide-bbox="true"
     fit-margin-top="0"
     fit-margin-left="0"
     fit-margin-right="0"
     fit-margin-bottom="0"
     inkscape:window-width="1440"
     inkscape:window-height="851"
     inkscape:window-x="0"
     inkscape:window-y="1"
     inkscape:window-maximized="1"
     inkscape:showpageshadow="true"
     borderlayer="true"
     showborder="true"
     inkscape:snap-global="true"
     inkscape:snap-page="true"
     inkscape:snap-bbox="true"
     inkscape:object-paths="true"
     inkscape:snap-intersection-paths="true"
     inkscape:object-nodes="true"
     inkscape:snap-smooth-nodes="true">
    <inkscape:grid
       type="xygrid"
       id="grid4235"
       empspacing="5"
       visible="true"
       enabled="true"
       snapvisiblegridlinesonly="true" />
  </sodipodi:namedview>
  <metadata
     id="metadata7">
    <rdf:RDF>
      <cc:Work
         rdf:about="">
        <dc:format>image/svg+xml</dc:format>
        <dc:type
           rdf:resource="http://purl.org/dc/dcmitype/StillImage" />
        <dc:title />
      </cc:Work>
    </rdf:RDF>
  </metadata>
  <g
     style="display:inline"
     inkscape:label="Logo"
     id="g4160"
     inkscape:groupmode="layer"
     transform="translate(0,-974)">
    <path
       style="display:inline;opacity:1;fill:#ffffff;fill-opacity:1;stroke:none;stroke-width:2;stroke-linecap:square;stroke-linejoin:miter;stroke-miterlimit:4;stroke-dasharray:none;stroke-dashoffset:0;stroke-opacity:1"
       d="M 44.882812,25 C 39.394208,19.51139 30.486653,19.51139 24.998047,25 C 19.509442,30.4886 10.599934,30.4886 5.1113281,25 C 2.4718033,22.360509 1.1007738,18.929481 1,15.46875 L 0.5001095,32.324219 c 0,4.1993 0.011563,7.441174 0.3925781,9.417875 c 0.3810156,1.976699 1.0560219,3.210265 2.6054688,4.759765 c 1.5494422,1.5494 2.7830845,2.224469 4.7597656,2.605469 c 1.976681,0.3806 4.71875,0.392578 8.917969,0.392578 l 7.824109,0 l 7.824398,0 c 4.199219,0 6.941288,-0.01158 8.917969,-0.392578 c 1.976679,-0.381 3.210324,-1.056069 4.759766,-2.605469 c 1.549447,-1.5495 2.224452,-2.783065 2.605468,-4.759765 C 49.414633,40.149232 48.985507,37.515245 49,34.565406 C 48.907289,31.092013 47.531066,27.648305 44.882812,25 Z m -7.1875,3.767578 c 0.401734,0.3854 0.68681,1.115022 0.677735,1.732422 c -0.0064,0.5029 -0.186934,1.153838 -0.59375,1.585938 c 0.186553,-0.145701 0.415368,-0.301563 0.615234,-0.351563 c 0.417776,-0.1046 0.866828,-2.19e-4 0.69336,0.238281 c -0.223679,0.3092 -0.370754,-0.0092 -0.746094,0.140625 c -0.37534,0.1471 -0.763888,0.439032 -0.736328,0.457031 c 0.554559,0.309701 1.246013,0.592447 1.646484,0.998047 c 0.580759,0.6016 0.89023,1.680694 0.636719,2.621094 c -0.518452,1.9233 -2.832344,3.196353 -4.494141,3.501953 c -0.819818,0.1508 -1.760889,0.28646 -2.251953,-0.24414 c -0.491065,-0.5305 -0.518127,-0.879528 -1.125,-1.486328 c -0.606873,-0.6069 -0.950431,-0.593972 -1.474609,-1.138672 c -0.524179,-0.5447 -0.342484,-1.369575 -0.191407,-2.171875 c 0.301225,-1.5996 1.543328,-3.983622 3.513672,-4.482422 c 1.023212,-0.2591 1.982814,-0.03848 2.5625,0.541015 c 0.451314,0.4926 0.700975,1.130669 0.986328,1.667969 c 0.0074,0.011 0.106921,-0.07881 0.248047,-0.195312 c -0.492465,-0.3791 -0.733349,-1.068394 -0.722656,-1.683594 c 0.02826,-0.6147 0.263294,-1.280069 0.755859,-1.730469 z"
       transform="translate(0,974)"
       id="path4165"
       inkscape:connector-curvature="0"
       sodipodi:nodetypes="sssccsccscsscscsccccccccccccsscccccc" />
    <path
       style="display:inline;opacity:1;fill:#ffffff;fill-opacity:1;stroke:none;stroke-width:2;stroke-linecap:square;stroke-linejoin:miter;stroke-miterlimit:4;stroke-dasharray:none;stroke-dashoffset:0;stroke-opacity:1"
       d="M 17.675781 0 C 9.277345 0 6.5827831 -0.000754375 3.2910156 3.2910156 C -0.0007516335 6.5827856 0 9.2773412 0 17.675781 L 0 25 L 0 32.324219 C 0 40.722719 -0.0007516335 43.417184 3.2910156 46.708984 C 6.5827831 50.000784 9.2773451 50 17.675781 50 L 25 50 L 32.324219 50 C 40.722656 50 43.417217 50.000784 46.708984 46.708984 C 50.000753 43.417184 50 40.722719 50 32.324219 L 50 25 L 50 17.675781 C 50 9.2773412 50.000753 6.5827856 46.708984 3.2910156 C 43.417217 -0.000754375 40.722656 0 32.324219 0 L 25 0 L 17.675781 0 z M 17.675781 1 L 25 1 L 32.324219 1 C 36.523436 1 39.265504 1.0115981 41.242188 1.3925781 C 43.218869 1.7735881 44.452511 2.4485969 46.001953 3.9980469 C 47.551397 5.5474869 48.226406 6.7811325 48.607422 8.7578125 C 48.988438 10.734493 49 13.476561 49 17.675781 L 49 25 L 49 32.324219 C 49 36.523519 48.98844 39.265487 48.607422 41.242188 C 48.226406 43.218888 47.551401 44.452453 46.001953 46.001953 C 44.452511 47.551353 43.218868 48.226422 41.242188 48.607422 C 39.265506 48.988422 36.523437 49 32.324219 49 L 25 49 L 17.675781 49 C 13.476563 49 10.734494 48.988022 8.7578125 48.607422 C 6.7811314 48.226422 5.5474891 47.551353 3.9980469 46.001953 C 2.4486 44.452453 1.7735937 43.218887 1.3925781 41.242188 C 1.0115626 39.265487 1 36.523519 1 32.324219 L 1 25 L 1 17.675781 C 1 13.476561 1.011562 10.734492 1.3925781 8.7578125 C 1.7735939 6.7811325 2.4486038 5.5474869 3.9980469 3.9980469 C 5.5474897 2.4485969 6.7811304 1.7735881 8.7578125 1.3925781 C 10.734495 1.0115581 13.476564 1 17.675781 1 z "
       transform="translate(0,974)"
       id="path4153" />
    <path
       sodipodi:type="star"
       style="opacity:1;fill:#ffffff;fill-opacity:1;stroke:none;stroke-width:2;stroke-linecap:square;stroke-linejoin:miter;stroke-miterlimit:4;stroke-dasharray:none;stroke-dashoffset:0;stroke-opacity:1"
       id="path4170"
       sodipodi:sides="5"
       sodipodi:cx="-200"
       sodipodi:cy="25"
       sodipodi:r1="100"
       sodipodi:r2="80.901695"
       sodipodi:arg1="1.5707963"
       sodipodi:arg2="2.1991149"
       inkscape:flatsided="true"
       inkscape:rounded="0"
       inkscape:randomized="0.015"
       d="m -200.26155,125.50307 l -96.18239,-70.729178 l 38.50025,-109.572078 l 116.55244,-0.280613 l 35.6031,111.230646 z"
       inkscape:transform-center-x="-4.0270613"
       inkscape:transform-center-y="-3.9965047"
       transform="matrix(0.04042027,0.04042027,-0.04042027,0.04042027,24.11754,995.93815)" />
  </g>
</svg>
