<?xml version="1.0" encoding="UTF-8" standalone="no"?>
<!-- Created with Inkscape (http://www.inkscape.org/) -->

<svg
   xmlns:dc="http://purl.org/dc/elements/1.1/"
   xmlns:cc="http://creativecommons.org/ns#"
   xmlns:rdf="http://www.w3.org/1999/02/22-rdf-syntax-ns#"
   xmlns:svg="http://www.w3.org/2000/svg"
   xmlns="http://www.w3.org/2000/svg"
   xmlns:sodipodi="http://sodipodi.sourceforge.net/DTD/sodipodi-0.dtd"
   xmlns:inkscape="http://www.inkscape.org/namespaces/inkscape"
   width="40"
   height="40"
   viewBox="0 0 40 40"
   id="svg2"
   version="1.1"
   inkscape:version="0.91 r13725"
   sodipodi:docname="GitHub Logo.svg"
   inkscape:export-filename="/Users/ratface/Sites/robruana.github.io/images/github-logo_2x.png"
   inkscape:export-xdpi="180"
   inkscape:export-ydpi="180">
  <defs
     id="defs4" />
  <sodipodi:namedview
     id="base"
     pagecolor="#808080"
     bordercolor="#666666"
     borderopacity="1.0"
     inkscape:pageopacity="0"
     inkscape:pageshadow="2"
     inkscape:zoom="8"
     inkscape:cx="-28.201308"
     inkscape:cy="17.042641"
     inkscape:document-units="px"
     inkscape:current-layer="layer2"
     showgrid="false"
     showguides="true"
     inkscape:guide-bbox="true"
     units="px"
     inkscape:window-width="1440"
     inkscape:window-height="851"
     inkscape:window-x="0"
     inkscape:window-y="1"
     inkscape:window-maximized="1"
     inkscape:snap-bbox="true"
     inkscape:bbox-paths="true"
     inkscape:bbox-nodes="true"
     inkscape:snap-bbox-edge-midpoints="true"
     inkscape:snap-bbox-midpoints="true"
     inkscape:object-paths="true"
     inkscape:snap-intersection-paths="true"
     inkscape:object-nodes="true"
     inkscape:snap-smooth-nodes="true"
     inkscape:snap-midpoints="true" />
  <metadata
     id="metadata7">
    <rdf:RDF>
      <cc:Work
         rdf:about="">
        <dc:format>image/svg+xml</dc:format>
        <dc:type
           rdf:resource="http://purl.org/dc/dcmitype/StillImage" />
        <dc:title />
      </cc:Work>
    </rdf:RDF>
  </metadata>
  <g
     inkscape:label="Encircled"
     inkscape:groupmode="layer"
     id="g4139"
     transform="translate(0,-1012.3622)"
     style="display:none">
    <path
       d="m 200,652.36221 c -110.5,0 -200,89.5 -200,200 c 0,88.5 57.25,163.24999 136.75,189.74999 c 10,1.75 13.75,-4.25 13.75,-9.5 c 0,-4.75 -0.25,-20.5 -0.25,-37.24999 C 100,1004.6122 87,983.11221 83,971.86221 c -2.25,-5.75 -12,-23.5 -20.5,-28.25 c -7,-3.75 -17,-13 -0.25,-13.25 c 15.75,-0.25 27,14.5 30.75,20.5 c 18,30.25 46.75,21.75 58.25,16.5 c 1.75,-13 7,-21.75 12.75,-26.75 c -44.5,-5 -91,-22.25 -91,-98.75 c 0,-21.75 7.75,-39.75 20.5,-53.75 c -2,-5 -9,-25.5 2,-53 c 0,0 16.75,-5.25 55,20.5 c 16,-4.5 33,-6.75 50,-6.75 c 17,0 34,2.25 50,6.75 c 38.25,-26 55,-20.5 55,-20.5 c 11,27.5 4,48 2,53 c 12.75,14 20.5,31.75 20.5,53.75 c 0,76.75 -46.75,93.75 -91.25,98.75 c 7.25,6.25 13.5,18.25 13.5,37 c 0,26.74999 -0.25,48.24999 -0.25,54.99999 c 0,5.25 3.75,11.5 13.75,9.5 A 200.325,200.325 0 0 0 400,852.36221 c 0,-110.5 -89.5,-200 -200,-200 z"
       id="path16"
       inkscape:connector-curvature="0"
       style="fill:#ffffff" />
  </g>
  <g
     inkscape:groupmode="layer"
     id="layer2"
     inkscape:label="Logo"
     transform="translate(0,-360)">
    <path
       style="display:inline;fill:#ffffff;fill-opacity:1"
       inkscape:connector-curvature="0"
       id="XMLID_1_"
       display="inline"
       d="m 2.2532618,381.76598 c 1.609793,-0.40199 3.7985821,-0.94949 7.6333636,-1.05131 c -0.1059655,-0.21194 -0.2016689,-0.43135 -0.2863987,-0.65761 c -1.4922104,-0.0129 -6.0878495,0.19896 -7.6620812,0.58791 c -0.00895,0.003 -0.018457,0.003 -0.028008,0.003 c -0.052655,0 -0.1011909,-0.0362 -0.1141607,-0.0895 c -0.015034,-0.0622 0.023232,-0.12643 0.086084,-0.14217 c 1.5599091,-0.38553 6.0447367,-0.59953 7.6333631,-0.59538 c -0.3575173,-1.05117 -0.5154328,-2.25563 -0.5154328,-3.60018 c 0,-2.3884 0.7437549,-3.28936 1.7430499,-4.56215 c -0.7642044,-2.72196 0.274143,-4.5826 0.274143,-4.5826 c 0,0 1.60573,-0.33286 4.641389,1.84083 c 1.645351,-0.70478 6.032052,-0.7635 8.107395,-0.1565 c 1.27415,-0.84216 3.603752,-2.037 4.54433,-1.70279 c 0.254259,0.41011 0.802543,1.60431 0.33222,4.22923 c 0.31989,0.57557 1.978282,1.8019 1.985053,5.26818 c -0.02736,1.27829 -0.159983,2.35762 -0.406047,3.27083 c 3.957851,-0.0335 6.2861,0.29323 7.889692,0.58855 c 0.06293,0.0129 0.105325,0.0739 0.09434,0.13739 c -0.01089,0.0561 -0.06014,0.0965 -0.114801,0.0965 c -0.0083,0 -0.01504,-6.2e-4 -0.02324,-9.9e-4 c -1.600956,-0.29667 -3.933194,-0.62205 -7.914347,-0.58585 c -0.06977,0.23176 -0.147654,0.45188 -0.232455,0.66173 c 1.354891,0.0451 5.076155,0.19006 8.111171,1.11831 c 0.06293,0.0192 0.09706,0.0847 0.07796,0.14765 c -0.01504,0.05 -0.0615,0.0828 -0.112094,0.0828 c -0.01091,0 -0.02324,-9.8e-4 -0.03414,-0.005 c -3.077419,-0.94058 -6.87942,-1.06977 -8.143952,-1.11154 c -1.100558,2.41783 -3.357688,3.32006 -7.006551,3.69532 c 1.182581,0.7444 1.521644,1.67806 1.521644,4.20463 c 0,2.52643 -0.03413,2.86549 -0.02593,3.44641 c 0.01233,0.95369 1.409476,1.41019 1.357596,1.71711 c -0.05194,0.30635 -1.168896,0.25705 -1.691099,0.0746 c -1.479237,-0.51537 -1.331656,-1.74591 -1.331656,-1.74591 l -0.04917,-3.37807 c 0,0 0.101191,-1.81831 -0.57009,-1.81831 c 0,0.36565 0,4.22167 0,5.52931 c 0,1.20168 0.840813,1.56675 0.840813,2.01108 c 0,0.76355 -1.536609,-0.0724 -2.009712,-0.54894 c -0.722161,-0.72459 -0.640068,-2.26111 -0.622324,-3.47648 c 0.01639,-1.17375 -0.01091,-3.7405 -0.01091,-3.7405 l -0.490062,0.0104 c 0,0 0.200957,5.60727 -0.258394,6.62908 c -0.593965,1.31177 -2.385614,1.763 -2.385614,1.16547 c 0,-0.40199 0.441535,-0.27406 0.685604,-1.17495 c 0.208441,-0.76635 0.137392,-6.483 0.137392,-6.483 c 0,0 -0.574151,0.33978 -0.574151,1.41018 c 0,0.49008 -0.01368,3.28928 -0.01368,4.12263 c 0,1.04788 -1.488149,1.64456 -2.203184,1.64456 c -0.362293,0 -0.812736,-0.0177 -0.812736,-0.20972 c 0,-0.48465 1.361019,-0.76913 1.361019,-1.77733 c 0,-0.87424 -0.01917,-3.1231 -0.01917,-3.1231 c 0,0 -0.686315,0.11744 -1.66516,0.11744 c -2.467635,0 -3.248302,-1.57487 -3.619501,-2.45601 c -0.4832941,-1.14766 -1.1101091,-1.68697 -1.7759027,-2.11768 c -0.4087537,-0.26452 -0.5031039,-0.57692 -0.030068,-0.66578 c 2.1846587,-0.41147 2.7431337,2.47725 4.2018507,2.93723 c 1.041055,0.32889 2.379485,0.18664 3.045278,-0.24399 c 0.08822,-0.88256 0.723943,-1.64536 1.253699,-2.04727 c -3.710358,-0.35615 -5.910123,-1.64463 -7.050304,-3.71591 c -3.8813158,0.093 -6.0837167,0.64392 -7.6982831,1.04718 c -0.1175807,0.0294 -0.2323833,0.0581 -0.3431221,0.0861 c -0.00958,0.002 -0.019175,0.003 -0.028726,0.003 c -0.052655,0 -0.1004731,-0.0356 -0.1141598,-0.0889 c -0.015752,-0.0629 0.023232,-0.12713 0.086157,-0.14288 c 0.1111674,-0.0274 0.2253271,-0.0553 0.3421961,-0.0854 z" />
    <circle
       style="opacity:1;fill:none;fill-opacity:1;fill-rule:nonzero;stroke:#ffffff;stroke-width:1.25;stroke-linecap:round;stroke-linejoin:round;stroke-miterlimit:4;stroke-dasharray:none;stroke-opacity:1"
       id="path4136"
       cx="20"
       cy="380"
       r="19.375" />
  </g>
</svg>
