<?xml version="1.0" encoding="UTF-8" standalone="no"?>
<!-- Created with Inkscape (http://www.inkscape.org/) -->

<svg
   xmlns:dc="http://purl.org/dc/elements/1.1/"
   xmlns:cc="http://creativecommons.org/ns#"
   xmlns:rdf="http://www.w3.org/1999/02/22-rdf-syntax-ns#"
   xmlns:svg="http://www.w3.org/2000/svg"
   xmlns="http://www.w3.org/2000/svg"
   xmlns:sodipodi="http://sodipodi.sourceforge.net/DTD/sodipodi-0.dtd"
   xmlns:inkscape="http://www.inkscape.org/namespaces/inkscape"
   width="744.09448819"
   height="1052.3622047"
   id="svg2"
   version="1.1"
   inkscape:version="0.48.2 r9819"
   sodipodi:docname="Images.svg">
  <defs
     id="defs4" />
  <sodipodi:namedview
     id="base"
     pagecolor="#ffffff"
     bordercolor="#666666"
     borderopacity="1.0"
     inkscape:pageopacity="0.0"
     inkscape:pageshadow="2"
     inkscape:zoom="0.5"
     inkscape:cx="238.98025"
     inkscape:cy="468.4717"
     inkscape:document-units="px"
     inkscape:current-layer="layer1"
     showgrid="false"
     showguides="true"
     inkscape:guide-bbox="true"
     inkscape:window-width="1440"
     inkscape:window-height="852"
     inkscape:window-x="0"
     inkscape:window-y="0"
     inkscape:window-maximized="1" />
  <metadata
     id="metadata7">
    <rdf:RDF>
      <cc:Work
         rdf:about="">
        <dc:format>image/svg+xml</dc:format>
        <dc:type
           rdf:resource="http://purl.org/dc/dcmitype/StillImage" />
        <dc:title></dc:title>
      </cc:Work>
    </rdf:RDF>
  </metadata>
  <g
     inkscape:label="Layer 1"
     inkscape:groupmode="layer"
     id="layer1">
    <rect
       style="fill:#ffffff;fill-opacity:1;stroke:#000000;stroke-width:10;stroke-linecap:square;stroke-linejoin:miter;stroke-miterlimit:4;stroke-opacity:1;stroke-dasharray:none;stroke-dashoffset:0"
       id="rect4125"
       width="520.4306"
       height="438.40619"
       x="31.112698"
       y="42.613705"
       transform="translate(-16.327999,-4.5355492)" />
    <path
       style="fill:#cc5947;fill-opacity:1"
       d="M 75 107.28125 L 75 407.28125 L 475 407.28125 L 475 107.28125 L 75 107.28125 z M 170.4375 119.78125 L 378.65625 119.78125 L 274.6875 206.96875 L 170.4375 119.78125 z M 128.65625 166.03125 L 274.6875 292.28125 L 421.34375 166.03125 L 421.34375 397.28125 L 128.65625 397.28125 L 128.65625 166.03125 z M 229.96875 264.84375 L 135.75 356.71875 L 141 361.9375 L 240.03125 274.09375 L 229.96875 264.84375 z M 320.03125 264.84375 L 309.96875 274.09375 L 409 361.9375 L 414.25 356.71875 L 320.03125 264.84375 z "
       id="path4095"
       inkscape:export-filename="/Users/ratface/Sites/relentlessidiot.com/WebContent/images/email.png"
       inkscape:export-xdpi="27"
       inkscape:export-ydpi="27" />
    <g
       id="g4212"
       inkscape:export-filename="/Users/ratface/Sites/relentlessidiot.com/WebContent/images/twitter.png"
       inkscape:export-xdpi="27"
       inkscape:export-ydpi="27">
      <path
         transform="matrix(1.8457563,0,0,1.8457563,-1.86344,485.48883)"
         inkscape:connector-curvature="0"
         d="M 250,87.974 C 242.642,91.238 234.733,93.443 226.434,94.435 C 234.905,89.357 241.412,81.316 244.475,71.734 C 236.546,76.437 227.765,79.851 218.418,81.691 C 210.934,73.716 200.27,68.734 188.468,68.734 C 165.808,68.734 147.435,87.105 147.435,109.765 C 147.435,112.981 147.798,116.113 148.497,119.116 C 114.395,117.405 84.161,101.069 63.923,76.244 C 60.391,82.304 58.367,89.352 58.367,96.872 C 58.367,111.108 65.611,123.667 76.621,131.025 C 69.895,130.812 63.568,128.966 58.036,125.893 C 58.032,126.064 58.032,126.236 58.032,126.409 C 58.032,146.289 72.176,162.873 90.947,166.643 C 87.504,167.581 83.879,168.082 80.137,168.082 C 77.493,168.082 74.923,167.824 72.417,167.346 C 77.639,183.647 92.792,195.511 110.748,195.841 C 96.705,206.847 79.013,213.406 59.788,213.406 C 56.476,213.406 53.21,213.212 50,212.832 C 68.159,224.475 89.727,231.269 112.899,231.269 C 188.372,231.269 229.645,168.745 229.645,114.522 C 229.645,112.743 229.605,110.974 229.526,109.213 C 237.543,103.429 244.499,96.202 250,87.974 z"
         style="fill:#00aced;fill-opacity:1;stroke:none"
         id="path4193" />
      <rect
         transform="matrix(1.0962896,0,0,1.0398629,447.09303,257.74853)"
         y="341.01276"
         x="-339.41125"
         height="288.49957"
         width="364.8671"
         id="rect4204"
         style="fill:#00aced;fill-opacity:0;stroke:none" />
    </g>
  </g>
</svg>
