<?xml version="1.0" encoding="UTF-8" standalone="no"?>
<!-- Created with Inkscape (http://www.inkscape.org/) -->

<svg
   xmlns:dc="http://purl.org/dc/elements/1.1/"
   xmlns:cc="http://creativecommons.org/ns#"
   xmlns:rdf="http://www.w3.org/1999/02/22-rdf-syntax-ns#"
   xmlns:svg="http://www.w3.org/2000/svg"
   xmlns="http://www.w3.org/2000/svg"
   xmlns:sodipodi="http://sodipodi.sourceforge.net/DTD/sodipodi-0.dtd"
   xmlns:inkscape="http://www.inkscape.org/namespaces/inkscape"
   width="50"
   height="50"
   viewBox="0 0 50 50"
   id="svg4262"
   version="1.1"
   inkscape:version="0.91 r13725"
   sodipodi:docname="Jurbly Logo.svg"
   inkscape:export-filename="/Users/ratface/Sites/robruana.github.io/images/jurbly-logo_2x.png"
   inkscape:export-xdpi="180"
   inkscape:export-ydpi="180">
  <defs
     id="defs4264" />
  <sodipodi:namedview
     id="base"
     pagecolor="#808080"
     bordercolor="#666666"
     borderopacity="1.0"
     inkscape:pageopacity="0"
     inkscape:pageshadow="2"
     inkscape:zoom="5.5999999"
     inkscape:cx="-11.851948"
     inkscape:cy="4.832683"
     inkscape:document-units="px"
     inkscape:current-layer="layer2"
     showgrid="false"
     inkscape:window-width="1440"
     inkscape:window-height="851"
     inkscape:window-x="0"
     inkscape:window-y="1"
     inkscape:window-maximized="1"
     units="px"
     showguides="true"
     inkscape:guide-bbox="true"
     inkscape:object-paths="true"
     inkscape:snap-intersection-paths="true"
     inkscape:object-nodes="true"
     inkscape:snap-smooth-nodes="true"
     inkscape:snap-midpoints="true"
     inkscape:snap-nodes="true"
     inkscape:snap-others="false"
     inkscape:snap-object-midpoints="false"
     inkscape:snap-center="true"
     inkscape:snap-bbox="true"
     inkscape:bbox-paths="false"
     inkscape:snap-global="true" />
  <metadata
     id="metadata4267">
    <rdf:RDF>
      <cc:Work
         rdf:about="">
        <dc:format>image/svg+xml</dc:format>
        <dc:type
           rdf:resource="http://purl.org/dc/dcmitype/StillImage" />
        <dc:title />
      </cc:Work>
    </rdf:RDF>
  </metadata>
  <g
     inkscape:groupmode="layer"
     id="layer2"
     inkscape:label="Logo"
     style="display:inline"
     transform="translate(0,-250)">
    <path
       style="display:inline;opacity:1;fill:#ffffff;fill-opacity:1;stroke:none;stroke-width:2;stroke-linecap:square;stroke-linejoin:miter;stroke-miterlimit:4;stroke-dasharray:none;stroke-dashoffset:0;stroke-opacity:1"
       d="m 17.675781,250 c -8.3984358,0 -11.0922161,3e-5 -14.3839833,3.2918 C 3.01e-5,256.58357 0,259.27734 0,267.67578 L 0,275 l 0,7.32422 c 0,8.39844 3.01e-5,11.09221 3.2917977,14.38398 C 6.5835654,299.99997 9.2773452,300 17.675781,300 L 25,300 l 7.324219,0 c 8.398437,0 11.092215,-3e-5 14.383983,-3.2918 C 49.999971,293.41643 50,290.72266 50,282.32422 L 50,275 l 0,-7.32422 c 0,-8.39844 -2.9e-5,-11.09221 -3.291798,-14.38398 C 43.416434,250.00003 40.722656,250 32.324219,250 L 25,250 l -7.324219,0 z m 1.309109,5.75619 c 1.085202,0.006 2.130558,0.11794 3.079224,0.34532 l -0.522995,1.77889 c -3.326147,-0.77481 -7.90828,0.0329 -10.768795,1.89867 l -1.0993963,-1.4925 c 1.6273853,-1.07628 3.7759393,-1.85054 5.9930803,-2.24151 c 1.108554,-0.19549 2.233682,-0.29503 3.318882,-0.28887 z m 12.659359,0 c 1.085293,-0.006 2.210686,0.0934 3.319263,0.28887 c 2.217119,0.3909 4.365231,1.16525 5.992604,2.24151 l -1.099301,1.4925 c -2.860552,-1.8657 -7.442677,-2.67351 -10.768794,-1.89867 l -0.522996,-1.77851 c 0.948675,-0.22738 1.993932,-0.33953 3.079224,-0.3457 z m -15.661621,8.45146 c 3.358711,0 6.081486,2.72268 6.081486,6.08139 c 0,3.35871 -2.722775,6.08149 -6.081486,6.08149 c -3.358713,0 -6.0814859,-2.72278 -6.0814859,-6.08149 c 0,-3.35871 2.7227729,-6.08139 6.0814859,-6.08139 z m 18.663883,0 c 3.358711,0 6.081486,2.72268 6.081486,6.08139 c 0,3.35871 -2.722775,6.08149 -6.081486,6.08149 c -3.358713,0 -6.081486,-2.72278 -6.081486,-6.08149 c 0,-3.35871 2.722773,-6.08139 6.081486,-6.08139 z m -21.117687,2.21949 c -1.099105,9e-5 -1.990125,0.89102 -1.990223,1.99012 c 9.8e-5,1.09911 0.891118,1.99003 1.990223,1.99013 c 1.099263,1.5e-4 1.990507,-0.89086 1.990604,-1.99013 c -9.7e-5,-1.09926 -0.891341,-1.99027 -1.990604,-1.99012 z m 18.663883,0 c -1.099105,9e-5 -1.990125,0.89102 -1.990223,1.99012 c 9.8e-5,1.09911 0.891118,1.99003 1.990223,1.99013 c 1.099265,1.5e-4 1.990507,-0.89086 1.990605,-1.99013 c -9.8e-5,-1.09926 -0.89134,-1.99027 -1.990605,-1.99012 z M 4.0293693,279.51612 l 41.9412617,0 c 0,0 -2.328018,8.97971 -6.18639,12.02212 c -3.858374,3.04242 -25.672421,3.07213 -29.568482,0 C 6.3197002,288.46611 4.0293693,279.51612 4.0293693,279.51612 Z m 3.502369,0.81835 c 0.06476,0.18789 0.1556929,0.35774 0.2895356,0.48781 c 0.4929546,0.47903 1.537356,0.64761 2.2895811,0.80147 c 0.752228,0.15385 1.796626,0.41223 2.289582,0.13484 c 0.380775,-0.21425 0.431871,-0.86934 0.435733,-1.42412 l -5.3044317,0 z m 5.3070067,0 c -0.0036,0.58059 0.01693,1.34849 0.468445,1.7067 c 0.530875,0.42117 1.655633,0.46735 2.465725,0.53291 c 0.810089,0.0656 1.93485,0.20125 2.465725,-0.13399 c 0.530875,-0.33524 0.467682,-1.35111 0.467682,-1.92823 c 0,-0.0547 -0.0059,-0.11613 -0.01183,-0.17739 l -5.855751,0 z m 5.902862,0 c -0.01784,0.11252 -0.03033,0.22009 -0.03033,0.31338 c 0,0.58207 -0.06745,1.59783 0.501346,1.99289 c 0.568792,0.39507 1.77382,0.379 2.641773,0.39978 c 0.867954,0.0208 2.072981,0.0947 2.641774,-0.27313 c 0.568797,-0.36783 0.501347,-1.38717 0.501347,-1.96924 c 0,-0.13312 -0.02128,-0.29278 -0.05732,-0.46368 l -6.198598,0 z m 6.318188,0 c -0.03603,0.1709 -0.05732,0.33056 -0.05732,0.46368 c 0,0.58207 -0.06745,1.60141 0.501347,1.96924 c 0.568793,0.36783 1.773819,0.29392 2.641774,0.27313 c 0.867953,-0.0208 2.07298,-0.005 2.641773,-0.39978 c 0.568796,-0.39506 0.501346,-1.41082 0.501346,-1.99289 c 0,-0.0933 -0.01247,-0.20086 -0.03033,-0.31338 l -6.198598,0 z m 6.245709,0 c -0.0059,0.0613 -0.01183,0.12268 -0.01183,0.17739 c 0,0.57712 -0.0631,1.59299 0.467778,1.92823 c 0.530873,0.33524 1.65554,0.19955 2.465629,0.13399 c 0.810091,-0.0656 1.93485,-0.11174 2.465725,-0.53291 c 0.451507,-0.35821 0.472004,-1.12611 0.468445,-1.7067 l -5.855751,0 z m 5.858326,0 c 0.0039,0.55478 0.05496,1.20987 0.435733,1.42412 c 0.492955,0.27739 1.537358,0.019 2.289582,-0.13484 c 0.752227,-0.15386 1.796626,-0.32244 2.289581,-0.80147 c 0.133844,-0.13007 0.224776,-0.29992 0.289536,-0.48781 l -5.304432,0 z m -15.127373,5.91402 c -1.11358,5e-5 -3.010307,0.19694 -4.220104,1.2455 c -0.06049,0.0524 -0.119605,0.10707 -0.176525,0.16384 c -0.05692,0.0568 -0.112092,0.11573 -0.165177,0.177 c -0.05308,0.0613 -0.104182,0.12442 -0.15316,0.19036 c -0.372578,0.50149 -0.620365,1.1423 -0.688839,1.95455 c 0.187635,0.0167 0.379279,0.0366 0.571728,0.0656 c 0.493623,0.0744 0.991629,0.17813 1.420117,0.51107 c 0.06017,0.0468 0.08169,0.11212 0.132274,0.16422 c 0.04024,-0.0322 0.07163,-0.0703 0.116634,-0.0991 c 0.587933,-0.37634 1.257943,-0.38316 1.907921,-0.38901 l 0.634766,-0.006 l 0,0.0176 c 0.15019,0.004 0.320997,0.005 0.453091,0.008 c 0.423143,0.01 0.955882,0.01 1.479721,0.0614 c 0.523839,0.0516 1.044971,0.12869 1.503658,0.44403 c 0.06635,0.0456 0.09156,0.11418 0.147438,0.1666 c 0.05588,-0.0524 0.08108,-0.12098 0.147438,-0.1666 c 0.458687,-0.31534 0.979821,-0.39244 1.503658,-0.44403 c 0.523837,-0.0516 1.056574,-0.0519 1.479721,-0.0619 c 0.132079,-0.003 0.302908,-0.004 0.453091,-0.008 l 0,-0.0172 l 0.634766,0.006 c 0.649988,0.006 1.319993,0.0127 1.907921,0.38901 c 0.04501,0.0288 0.07639,0.0669 0.116634,0.0991 c 0.05058,-0.0521 0.07211,-0.11747 0.132274,-0.16422 c 0.428488,-0.33294 0.926494,-0.43663 1.420117,-0.51107 c 0.19245,-0.029 0.384093,-0.0489 0.571728,-0.0656 c -0.06847,-0.81225 -0.316261,-1.45306 -0.688839,-1.95455 c -0.04898,-0.0659 -0.100076,-0.12908 -0.15316,-0.19036 c -0.05308,-0.0613 -0.108254,-0.12023 -0.165177,-0.177 c -0.05699,-0.0568 -0.115959,-0.11135 -0.176525,-0.16384 c -1.209797,-1.04856 -3.106491,-1.2455 -4.620457,-1.2455 c -0.142638,0 -0.276005,0.003 -0.400924,0.009 c -0.499686,0.0244 -0.862467,0.0953 -1.126862,0.19703 c -0.132198,0.0508 -0.239756,0.10915 -0.327587,0.17328 c -0.04392,0.0321 -0.08305,0.0657 -0.117683,0.10033 c -0.28119,0.28119 -0.521993,0.76706 -0.577832,1.07927 c -0.008,0.0446 -0.0123,0.0857 -0.0123,0.12207 c 0,-0.29129 -0.268771,-0.87998 -0.590134,-1.20134 c -0.03463,-0.0346 -0.07377,-0.0683 -0.117683,-0.10033 c -0.08783,-0.0641 -0.195389,-0.12244 -0.327587,-0.17328 c -0.330471,-0.12711 -0.814559,-0.20642 -1.928139,-0.20638 z M 9.68771,289.9765 c 0.2982631,0.33375 0.604555,0.63136 0.91753,0.87814 c 0.40039,0.31572 1.183099,0.64132 2.215862,0.93422 c -0.03167,-0.38847 -0.128237,-0.77442 -0.420665,-1.04398 c -0.492956,-0.4544 -1.537357,-0.57916 -2.289582,-0.70086 c -0.1299898,-0.021 -0.2800884,-0.0441 -0.423145,-0.0675 z m 30.621719,4.9e-4 c -0.142032,0.0232 -0.291174,0.0462 -0.420284,0.0671 c -0.752224,0.12169 -1.796627,0.24635 -2.289582,0.70076 c -0.291296,0.26852 -0.388215,0.65265 -0.420284,1.0396 c 1.03566,-0.29283 1.819269,-0.61741 2.215481,-0.92983 c 0.311423,-0.24557 0.616844,-0.54298 0.914669,-0.87767 z m -4.745006,0.68922 l 0,1e-4 c -0.448754,-0.004 -0.932293,0.0416 -1.337338,0.0705 c -0.810091,0.0577 -1.93485,0.0937 -2.465725,0.50621 c -0.453537,0.3524 -0.472339,0.97309 -0.46854,1.50481 c 0.946816,-0.0831 1.856919,-0.1839 2.701664,-0.30594 c 1.191868,-0.17218 2.258723,-0.39825 3.146744,-0.64716 c -0.03789,-0.36591 -0.144617,-0.71038 -0.448418,-0.90313 c -0.265436,-0.16849 -0.67963,-0.22158 -1.128387,-0.22536 z m -21.128846,1e-4 c -0.448757,0.004 -0.862951,0.0568 -1.128387,0.22526 c -0.30494,0.19347 -0.411391,0.53978 -0.448895,0.90723 c 0.893559,0.25127 1.968083,0.47863 3.168106,0.65126 c 0.838875,0.12068 1.741848,0.21992 2.680779,0.30193 c 0.0039,-0.5326 -0.01381,-1.15568 -0.46854,-1.509 c -0.530873,-0.4125 -1.655634,-0.44847 -2.465725,-0.50621 c -0.405044,-0.0289 -0.888584,-0.0743 -1.337338,-0.0705 z m 6.351471,0.38461 c -0.614883,0.006 -1.218925,0.0625 -1.574421,0.29002 c -0.467636,0.29933 -0.504017,0.88904 -0.502586,1.41134 c 1.978405,0.1727 4.131707,0.2614 6.288338,0.26054 c 0.0054,-0.5467 -5.37e-4,-1.2017 -0.502205,-1.54667 c -0.568793,-0.39104 -1.77382,-0.37503 -2.641774,-0.39558 c -0.325483,-0.008 -0.698424,-0.023 -1.067352,-0.0196 z m 8.425904,0 c -0.36893,-0.003 -0.74187,0.0119 -1.067352,0.0196 c -0.867955,0.0206 -2.072981,0.005 -2.641774,0.39558 c -0.501783,0.34497 -0.507611,0.99997 -0.502205,1.54667 c 0.0041,0 0.0082,1e-5 0.0123,0 c 2.152898,-10e-4 4.301684,-0.0917 6.276035,-0.26502 c 0.0013,-0.52119 -0.03633,-1.10841 -0.502586,-1.40686 c -0.355496,-0.22756 -0.959538,-0.28449 -1.574421,-0.29002 z"
       id="path4507"
       inkscape:connector-curvature="0" />
  </g>
</svg>
