<?xml version="1.0" encoding="UTF-8" standalone="no"?>
<!-- Created with Inkscape (http://www.inkscape.org/) -->

<svg
   xmlns:dc="http://purl.org/dc/elements/1.1/"
   xmlns:cc="http://creativecommons.org/ns#"
   xmlns:rdf="http://www.w3.org/1999/02/22-rdf-syntax-ns#"
   xmlns:svg="http://www.w3.org/2000/svg"
   xmlns="http://www.w3.org/2000/svg"
   xmlns:sodipodi="http://sodipodi.sourceforge.net/DTD/sodipodi-0.dtd"
   xmlns:inkscape="http://www.inkscape.org/namespaces/inkscape"
   width="50"
   height="50"
   id="svg2"
   version="1.1"
   inkscape:version="0.91 r13725"
   sodipodi:docname="Parsnip Logo.svg"
   inkscape:export-filename="/Users/ratface/Sites/robruana.github.io/images/parsnip-logo_2x.png"
   inkscape:export-xdpi="180"
   inkscape:export-ydpi="180">
  <defs
     id="defs4" />
  <sodipodi:namedview
     id="base"
     pagecolor="#808080"
     bordercolor="#666666"
     borderopacity="1.0"
     inkscape:pageopacity="0"
     inkscape:pageshadow="2"
     inkscape:zoom="11.390105"
     inkscape:cx="9.6289699"
     inkscape:cy="24.74514"
     inkscape:document-units="px"
     inkscape:current-layer="layer1"
     showgrid="false"
     inkscape:window-width="1440"
     inkscape:window-height="855"
     inkscape:window-x="-1"
     inkscape:window-y="0"
     inkscape:window-maximized="0"
     showguides="true"
     inkscape:guide-bbox="true" />
  <metadata
     id="metadata7">
    <rdf:RDF>
      <cc:Work
         rdf:about="">
        <dc:format>image/svg+xml</dc:format>
        <dc:type
           rdf:resource="http://purl.org/dc/dcmitype/StillImage" />
        <dc:title />
      </cc:Work>
    </rdf:RDF>
  </metadata>
  <g
     inkscape:label="Logo"
     inkscape:groupmode="layer"
     id="layer1"
     transform="translate(0,-1002.3622)"
     style="display:inline">
    <path
       inkscape:connector-curvature="0"
       style="fill:#ffffff;fill-opacity:1;stroke:none"
       d="m 17.076465,1010.1331 c 0,0 -0.200411,0.5673 0.02882,1.0328 c 0.203623,0.4135 0.655968,0.6002 0.759371,0.6383 c -0.170117,0.2594 -0.354848,0.4983 -0.551143,0.6975 c -2.054825,2.0844 -5.575796,4.5942 -5.104257,7.0551 c 0.285937,-1.09 1.217137,-2.3288 2.3918,-3.3282 c 0.472082,-0.7465 2.848858,-2.7465 3.682103,-3.8096 c 0.186367,-0.2378 0.358221,-0.7405 0.506014,-1.3124 c 0.132645,0.1069 0.58633,0.4398 1.104175,0.407 c 0.615722,-0.039 1.083815,-0.5821 1.083815,-0.5821 c 0,0 -0.53456,-0.5093 -1.150293,-0.4703 c -0.47593,0.03 -0.859791,0.3758 -1.010421,0.533 c 0.295705,-1.1862 0.488134,-2.6098 0.488129,-2.6098 c 0,0 -0.491642,1.8933 -1.35339,3.2812 c 0.05071,-0.2025 0.106944,-0.5705 -0.05049,-0.8902 c -0.229215,-0.4655 -0.824232,-0.6423 -0.824232,-0.6423 z m 6.515331,-3.752 c 0,0 -0.408873,0.8885 -0.09424,1.6435 c 0.270022,0.648 0.981949,0.9851 1.17935,1.068 c -0.8624,1.0212 -1.60181,1.8869 -1.877447,2.1111 c -3.148422,2.7009 -11.666694,5.05 -10.497035,10.9749 c 0.249751,-1.5337 1.559421,-3.0133 2.027,-3.4776 c 1.707899,-2.7759 6.260335,-4.6152 8.277691,-6.1939 c 0.40272,-0.3151 0.80581,-0.8088 1.227908,-1.4121 c 0.07141,0.1473 0.266798,0.4867 0.609545,0.6331 c 0.441421,0.1885 0.955951,-0.025 0.955951,-0.025 c 0,0 -0.193082,-0.5405 -0.634519,-0.729 c -0.317281,-0.1355 -0.672884,-0.054 -0.850201,0 c 0.475846,-0.6914 0.977741,-1.5152 1.535225,-2.3814 c 0.1055,0.1401 0.512731,0.6334 1.089292,0.7366 c 0.672917,0.1204 1.316985,-0.3389 1.316985,-0.3389 c 0,0 -0.438722,-0.6919 -1.111639,-0.8124 c -0.518651,-0.093 -1.021209,0.1789 -1.225924,0.3088 c 0.451565,-0.6985 0.938015,-1.4202 1.477676,-2.1184 c -0.696241,0.7917 -1.489538,1.7373 -2.212743,2.5943 c 0.08974,-0.2809 0.239424,-0.9121 0.0034,-1.4783 c -0.314621,-0.755 -1.196323,-1.107 -1.196323,-1.107 z m -9.062334,12.4619 c -0.05606,0.055 -0.109515,0.1084 -0.158991,0.1611 c -1.396802,1.4878 -2.632362,3.66 -1.305564,5.2464 c 0.471302,0.5635 0.781365,1.0202 1.013225,1.0523 c 0.23191,0.032 0.763043,-0.1981 1.013821,-0.4396 c 0.250796,-0.2414 0.575873,-0.7684 0.511115,-0.9821 c -0.06473,-0.2138 -0.572956,-0.5952 -0.759537,-0.9667 c -0.547261,-1.0899 0.121273,-2.2663 0.658593,-2.9556 c 1.262426,-1.5954 4.904194,-3.6762 7.836719,-5.4059 c 2.114419,-1.2471 3.799707,-2.5192 5.529716,-4.07 c 0.07931,0.1615 0.379849,0.7073 0.90711,0.8935 c 0.620662,0.2193 1.316998,-0.1488 1.316998,-0.1488 c 0,0 -0.322511,-0.6923 -0.943153,-0.9115 c -0.448262,-0.1583 -0.925767,-0.026 -1.158845,0.059 c 0.606637,-0.5477 1.219283,-1.131 1.860148,-1.76 c 0.107242,0.1339 0.796031,0.9514 1.727027,1.0406 c 1.01347,0.097 1.920307,-0.7178 1.920307,-0.7178 c -1.9e-5,0 -0.741128,-0.9177 -1.754596,-1.0148 c -0.722305,-0.069 -1.38521,0.2967 -1.708139,0.5135 c 0.671851,-0.6631 1.372493,-1.3757 2.130635,-2.1539 c -0.900549,0.7977 -1.92211,1.6421 -2.986979,2.4756 c 0.175011,-0.2238 0.520727,-0.7457 0.496848,-1.3361 c -0.03183,-0.7871 -0.711076,-1.3983 -0.711076,-1.3983 c 0,0 -0.66618,0.6674 -0.634342,1.4546 c 0.02872,0.7103 0.610738,1.2718 0.725213,1.3755 c -0.971288,0.757 -1.975142,1.5034 -2.955486,2.195 c 0.06833,-0.1404 0.148526,-0.3678 0.09918,-0.5949 c -0.0797,-0.3672 -0.467524,-0.5948 -0.46754,-0.5948 c 3.7e-5,0 -0.240407,0.3656 -0.16068,0.7328 c 0.05951,0.274 0.280691,0.4722 0.388916,0.5553 c -1.71768,1.2054 -3.350615,2.2368 -4.588611,2.8512 c -1.296829,0.6436 -6.103252,3.1542 -7.842035,4.844 z m -1.327609,5.8757 c -1.03578,0.9724 -1.904018,2.6031 -0.948358,4.3755 c 1.873663,0.7025 3.487389,-1.1063 3.487389,-1.1063 c 0,0 -1.647239,1.992 -3.282519,1.4435 c 0.144321,0.2161 0.315152,0.4347 0.518834,0.6532 c 2.248368,2.4116 5.658286,4.9153 5.658302,4.9153 c 1.297308,1.3916 2.847673,2.715 4.088884,3.7053 c 1.476715,0.5441 2.921437,-0.4144 2.921437,-0.4144 c 0,0 -1.224925,0.9692 -2.326151,0.8836 c 2.479374,1.9101 6.362378,4.4199 6.362378,4.4199 c 0,0 0.68525,0.3718 1.731825,1.0941 c 0.985917,0.026 1.568415,-0.5217 1.568415,-0.5217 c 0,0 -0.559169,0.6362 -1.096713,0.8549 c 0.415073,0.2986 0.870468,0.6411 1.354007,1.0309 c 1.395541,1.1248 4.919339,2.6476 4.919339,2.6476 c -3.156723,-3.386 -3.411283,-4.2877 -4.596457,-6.2499 c -0.938737,-1.5543 -2.089195,-2.9747 -2.728101,-3.7243 c -0.155999,0.5413 -0.591352,0.941 -0.591352,0.941 c 0,0 0.336941,-0.5172 0.360718,-1.2091 c -0.06406,-0.073 -0.124438,-0.1418 -0.165111,-0.1874 c -0.19962,0.6356 -0.895746,1.3987 -0.895746,1.3987 c 0,0 0.691874,-0.915 0.618934,-1.8234 c -0.380194,-0.6618 -1.438312,-2.4506 -3.157304,-4.9378 c -0.226781,0.8164 -1.040636,1.3953 -1.040636,1.3953 c 0,0 0.776632,-0.6357 0.810503,-1.725 c -0.123939,-0.1777 -0.24776,-0.3565 -0.377787,-0.54 c -0.382307,1.6369 -2.090648,2.7254 -2.090648,2.7254 c 0,0 1.611122,-1.2117 1.838139,-3.0826 c -1.64854,-2.2988 -3.271994,-4.0938 -3.790656,-4.6532 c -0.273672,0.5018 -0.904353,0.9784 -0.904353,0.9784 c 0,0 0.49899,-0.6771 0.690489,-1.2492 c -0.13316,-0.3097 -0.760359,-1.6309 -2.422302,-3.4135 c -1.702574,-1.8262 -3.828336,-1.029 -4.436798,-0.5305 c 0.576684,-0.1828 0.963192,-0.3556 1.346508,0.056 c 0.420097,0.4506 -0.07543,1.5938 -1.044229,2.497 c -0.9688,0.9032 -2.124445,1.3532 -2.565644,0.8685 c -0.441265,-0.4847 -0.131259,-1.0537 0.184761,-1.5153 z m 0.102166,0.034 c 0,0 -0.520059,0.8088 -0.188139,1.1835 c 0.331904,0.3748 1.246613,0.023 1.882113,-0.5791 c -1.149492,0.5643 -1.4027,0.331 -1.613881,0.1068 c -0.211178,-0.2242 -0.08009,-0.7112 -0.08009,-0.7112 z"
       id="path3406" />
    <path
       inkscape:connector-curvature="0"
       style="display:inline;opacity:1;fill:#ffffff;fill-opacity:1;stroke:none;stroke-width:2;stroke-linecap:square;stroke-linejoin:miter;stroke-miterlimit:4;stroke-dasharray:none;stroke-dashoffset:0;stroke-opacity:1"
       d="m 17.675781,1002.3622 c -8.398436,0 -11.092998,-7e-4 -14.384765,3.291 C -7.52e-4,1008.945 0,1011.6396 0,1020.038 l 0,7.3242 l 0,7.3242 c 0,8.3985 -7.52e-4,11.093 3.291016,14.3848 c 3.291767,3.2918 5.986329,3.291 14.384765,3.291 l 7.324219,0 l 7.324219,0 c 8.398437,0 11.092998,8e-4 14.384765,-3.291 C 50.000753,1045.7794 50,1043.0849 50,1034.6864 l 0,-7.3242 l 0,-7.3242 c 0,-8.3984 7.53e-4,-11.093 -3.291016,-14.3848 c -3.291767,-3.2917 -5.986328,-3.291 -14.384765,-3.291 l -7.324219,0 l -7.324219,0 z m 0,1 l 7.324219,0 l 7.324219,0 c 4.199217,0 6.941285,0.012 8.917969,0.3926 c 1.976681,0.381 3.210323,1.056 4.759765,2.6055 c 1.549444,1.5494 2.224453,2.7831 2.605469,4.7597 C 48.988438,1013.0967 49,1015.8388 49,1020.038 l 0,7.3242 l 0,7.3242 c 0,4.1993 -0.01156,6.9413 -0.392578,8.918 c -0.381016,1.9767 -1.056021,3.2103 -2.605469,4.7598 c -1.549442,1.5494 -2.783085,2.2244 -4.759765,2.6054 c -1.976682,0.381 -4.718751,0.3926 -8.917969,0.3926 l -7.324219,0 l -7.324219,0 c -4.199218,0 -6.941287,-0.012 -8.917968,-0.3926 c -1.976682,-0.381 -3.210324,-1.056 -4.759766,-2.6054 c -1.549447,-1.5495 -2.224453,-2.7831 -2.605469,-4.7598 C 1.011563,1041.6277 1,1038.8857 1,1034.6864 l 0,-7.3242 l 0,-7.3242 c 0,-4.1992 0.01156,-6.9413 0.392578,-8.918 c 0.381016,-1.9766 1.056026,-3.2103 2.605469,-4.7597 c 1.549443,-1.5495 2.783083,-2.2245 4.759766,-2.6055 c 1.976682,-0.381 4.718751,-0.3926 8.917968,-0.3926 z"
       id="path4153" />
  </g>
</svg>
