<?xml version="1.0" encoding="UTF-8" standalone="no"?>
<!-- Created with Inkscape (http://www.inkscape.org/) -->

<svg
   xmlns:dc="http://purl.org/dc/elements/1.1/"
   xmlns:cc="http://creativecommons.org/ns#"
   xmlns:rdf="http://www.w3.org/1999/02/22-rdf-syntax-ns#"
   xmlns:svg="http://www.w3.org/2000/svg"
   xmlns="http://www.w3.org/2000/svg"
   xmlns:xlink="http://www.w3.org/1999/xlink"
   xmlns:sodipodi="http://sodipodi.sourceforge.net/DTD/sodipodi-0.dtd"
   xmlns:inkscape="http://www.inkscape.org/namespaces/inkscape"
   width="40"
   height="40"
   viewBox="0 0 40 40"
   id="svg4262"
   version="1.1"
   inkscape:version="0.91 r13725"
   sodipodi:docname="Python Logo.svg"
   inkscape:export-filename="/Users/ratface/Sites/robruana.github.io/images/python-logo_2x.png"
   inkscape:export-xdpi="180"
   inkscape:export-ydpi="180">
  <defs
     id="defs4264">
    <linearGradient
       id="linearGradient4671">
      <stop
         id="stop4673"
         offset="0"
         style="stop-color:#ffd43b;stop-opacity:1;" />
      <stop
         id="stop4675"
         offset="1"
         style="stop-color:#ffe873;stop-opacity:1" />
    </linearGradient>
    <linearGradient
       id="linearGradient4689">
      <stop
         id="stop4691"
         offset="0"
         style="stop-color:#5a9fd4;stop-opacity:1;" />
      <stop
         id="stop4693"
         offset="1"
         style="stop-color:#306998;stop-opacity:1;" />
    </linearGradient>
    <linearGradient
       y2="137.27299"
       x2="112.03144"
       y1="192.35176"
       x1="150.96111"
       gradientTransform="matrix(0.562541,0,0,0.567972,-450.38916,-408.33359)"
       gradientUnits="userSpaceOnUse"
       id="linearGradient1475"
       xlink:href="#linearGradient4671"
       inkscape:collect="always" />
    <linearGradient
       y2="114.39767"
       x2="135.66525"
       y1="20.603781"
       x1="26.648937"
       gradientTransform="matrix(0.562541,0,0,0.567972,-450.38916,-408.33359)"
       gradientUnits="userSpaceOnUse"
       id="linearGradient1478"
       xlink:href="#linearGradient4689"
       inkscape:collect="always" />
  </defs>
  <sodipodi:namedview
     id="base"
     pagecolor="#808080"
     bordercolor="#666666"
     borderopacity="1.0"
     inkscape:pageopacity="0"
     inkscape:pageshadow="2"
     inkscape:zoom="2.2945615"
     inkscape:cx="49.933591"
     inkscape:cy="-55.727576"
     inkscape:document-units="px"
     inkscape:current-layer="g4341"
     showgrid="false"
     inkscape:window-width="1440"
     inkscape:window-height="851"
     inkscape:window-x="0"
     inkscape:window-y="1"
     inkscape:window-maximized="1"
     units="px"
     showguides="true"
     inkscape:guide-bbox="true"
     inkscape:object-paths="true"
     inkscape:snap-intersection-paths="true"
     inkscape:object-nodes="true"
     inkscape:snap-smooth-nodes="true"
     inkscape:snap-midpoints="true"
     inkscape:snap-nodes="true"
     inkscape:snap-others="false"
     inkscape:snap-object-midpoints="false"
     inkscape:snap-center="true"
     inkscape:snap-bbox="true"
     inkscape:bbox-paths="false"
     inkscape:snap-global="true" />
  <metadata
     id="metadata4267">
    <rdf:RDF>
      <cc:Work
         rdf:about="">
        <dc:format>image/svg+xml</dc:format>
        <dc:type
           rdf:resource="http://purl.org/dc/dcmitype/StillImage" />
        <dc:title />
      </cc:Work>
    </rdf:RDF>
  </metadata>
  <g
     transform="translate(0,-260)"
     style="display:none"
     inkscape:label="Original"
     id="g4139"
     inkscape:groupmode="layer">
    <g
       style="display:inline"
       id="g4333"
       transform="matrix(0.35590671,0,0,0.35590671,155.17955,401.16371)">
      <path
         style="fill:url(#linearGradient1478);fill-opacity:1"
         d="m -380.47925,-396.6303 c -4.58366,0.0213 -8.96094,0.41222 -12.8125,1.09375 c -11.34622,2.0045 -13.40625,6.2001 -13.40625,13.9375 l 0,10.21875 l 26.8125,0 l 0,3.40625 l -26.8125,0 l -10.0625,0 c -7.79246,0 -14.61576,4.68372 -16.75,13.59375 c -2.46182,10.21296 -2.57102,16.58602 0,27.25 c 1.90592,7.93785 6.45754,13.59375 14.25,13.59375 l 9.21875,0 l 0,-12.25 c 0,-8.8499 7.65714,-16.65625 16.75,-16.65625 l 26.78125,0 c 7.45495,0 13.40625,-6.13816 13.40625,-13.625 l 0,-25.53125 c 0,-7.26634 -6.12998,-12.72478 -13.40625,-13.9375 c -4.60599,-0.76673 -9.3851,-1.11505 -13.96875,-1.09375 z m -14.5,8.21875 c 2.76954,0 5.03125,2.29865 5.03125,5.125 c -1e-5,2.81634 -2.26171,5.09375 -5.03125,5.09375 c -2.77948,0 -5.03125,-2.27742 -5.03125,-5.09375 c -1e-5,-2.82635 2.25177,-5.125 5.03125,-5.125 z"
         id="path1948"
         inkscape:connector-curvature="0" />
      <path
         style="fill:url(#linearGradient1475);fill-opacity:1"
         d="m -349.7605,-367.97405 l 0,11.90625 c 0,9.23075 -7.8259,17 -16.75,17 l -26.78125,0 c -7.33584,0 -13.40625,6.27848 -13.40625,13.625 l 0,25.53125 c 0,7.26634 6.31858,11.54032 13.40625,13.625 c 8.48733,2.49561 16.62623,2.94663 26.78125,0 c 6.75015,-1.95439 13.40625,-5.88761 13.40625,-13.625 l 0,-10.21875 l -26.78125,0 l 0,-3.40625 l 26.78125,0 l 13.40625,0 c 7.79246,0 10.69625,-5.43541 13.40624,-13.59375 c 2.79933,-8.39889 2.68022,-16.47578 0,-27.25 c -1.92578,-7.75744 -5.60387,-13.59375 -13.40624,-13.59375 l -10.0625,0 z m -15.0625,64.65625 c 2.77947,0 5.03125,2.27742 5.03125,5.09375 c -1e-5,2.82635 -2.25178,5.125 -5.03125,5.125 c -2.76955,0 -5.03125,-2.29865 -5.03125,-5.125 c 0,-2.81633 2.26169,-5.09375 5.03125,-5.09375 z"
         id="path1950"
         inkscape:connector-curvature="0" />
    </g>
  </g>
  <g
     inkscape:groupmode="layer"
     id="g4231"
     inkscape:label="Solid With Circle"
     style="display:inline"
     transform="translate(0,-260)">
    <circle
       style="opacity:1;fill:none;fill-opacity:1;fill-rule:nonzero;stroke:#ffffff;stroke-width:0.99999994;stroke-linecap:round;stroke-linejoin:round;stroke-miterlimit:4;stroke-dasharray:none;stroke-opacity:1"
       id="path4255"
       cx="20"
       cy="280"
       r="19.5"
       inkscape:export-filename="/Users/ratface/Sites/robruana.github.io/images/path4255.png"
       inkscape:export-xdpi="90"
       inkscape:export-ydpi="90" />
    <path
       id="path4338"
       style="display:inline;fill:#ffffff;fill-opacity:1"
       d="m 20.164059,294 c 1.14195,-0.006 2.23381,-0.10364 3.19336,-0.27343 c 2.82674,-0.49939 3.82131,-1.55135 3.64258,-3.47071 l 0,-3.25586 l -7,0 l 0,-1 l 9.20313,0 c 1.90488,0 3.64211,-0.30559 4.17382,-2.52539 c 0.61333,-2.5444 0.64054,-4.13229 0,-6.78906 C 32.902119,274.70795 31.691719,274 29.826169,274 l -1.82623,0 l 0,2.34961 c 0,2.20481 -1.90653,4.40039 -4.17188,4.40039 l -7.14251,0 c -1.85729,0 -3.68555,1.27929 -3.68555,3.14453 l 0,6.36133 c 0,1.8103 1.87278,3.16858 3.68555,3.47071 c 1.14751,0.19102 2.33657,0.27874 3.47851,0.27343 z m 3.33594,-2 c -0.8257,0 -1.5,-0.67415 -1.5,-1.5039 c 0,-0.82682 0.6743,-1.4961 1.5,-1.4961 c 0.82867,0 1.5,0.66928 1.5,1.4961 c 10e-6,0.82975 -0.67133,1.5039 -1.5,1.5039 z m -3.664062,-26 c -1.14195,0.006 -2.233803,0.10365 -3.19336,0.27344 c -2.826737,0.49939 -3.821308,1.55134 -3.642578,3.4707 l 0,3.25586 l 7,0 l 0,1 l -9.203125,0 c -1.9048878,0 -3.642115,0.30559 -4.173828,2.52539 c -0.613326,2.5444 -0.640531,4.13229 0,6.78906 C 7.097876,285.29205 8.3082848,286 10.173827,286 l 1.826234,0 l 0,-2.34961 c 0,-2.20481 1.906528,-4.40039 4.171876,-4.40039 l 7.142515,0 c 1.857286,0 3.685547,-1.27929 3.685547,-3.14453 l 0,-6.36133 c 0,-1.8103 -1.872776,-3.16857 -3.685547,-3.4707 C 22.16694,266.08242 20.977882,265.99469 19.835937,266 Z m -3.335938,2 c 0.825701,0 1.5,0.67416 1.5,1.50391 c -2e-6,0.82682 -0.674299,1.49609 -1.5,1.49609 c -0.828665,0 -1.5,-0.66927 -1.5,-1.49609 c -4e-6,-0.82975 0.671335,-1.50391 1.5,-1.50391 z"
       inkscape:connector-curvature="0" />
  </g>
  <g
     transform="translate(0,-260)"
     style="display:none"
     inkscape:label="Outline With Circle"
     id="g4341"
     inkscape:groupmode="layer">
    <circle
       inkscape:export-ydpi="90"
       inkscape:export-xdpi="90"
       inkscape:export-filename="/Users/ratface/Sites/robruana.github.io/images/path4255.png"
       r="19.5"
       cy="280"
       cx="20"
       id="circle4343"
       style="opacity:1;fill:none;fill-opacity:1;fill-rule:nonzero;stroke:#ffffff;stroke-width:0.99999994;stroke-linecap:round;stroke-linejoin:round;stroke-miterlimit:4;stroke-dasharray:none;stroke-opacity:1" />
    <path
       style="display:inline;fill:#ffffff;fill-opacity:1"
       d="m 28,14 l 0,2.349609 C 28,18.554419 26.093475,20.75 23.828125,20.75 l -7.142578,0 C 14.828257,20.75 13,22.029291 13,23.894531 l 0,6.361328 c 0,1.8103 1.872777,3.168574 3.685547,3.470703 c 1.14751,0.19102 2.336576,0.278748 3.478515,0.273438 c 1.141951,-0.006 2.23381,-0.103647 3.19336,-0.273438 C 26.184162,33.227172 27.17873,32.175219 27,30.255859 L 27,27 l -7,0 l 0,-1 l 9.203125,0 c 1.90488,0 3.642118,-0.305591 4.173828,-2.525391 c 0.61333,-2.5444 0.64054,-4.132292 0,-6.789062 C 32.902123,14.707947 31.691722,14 29.826172,14 L 28,14 Z m -4.5,15 c 0.82867,0 1.5,0.669274 1.5,1.496094 C 25.00001,31.325844 24.32867,32 23.5,32 C 22.6743,32 22,31.325844 22,30.496094 C 22,29.669274 22.6743,29 23.5,29 Z"
       transform="translate(0,260)"
       id="path4353"
       inkscape:connector-curvature="0" />
    <path
       style="display:inline;fill:#ffffff;fill-opacity:1"
       d="m 19.835938,6 c -1.141951,0.006 -2.233803,0.1036475 -3.19336,0.2734375 C 13.815841,6.7728275 12.82127,7.8247806 13,9.7441406 L 13,13 l 7,0 l 0,1 l -9.203125,0 c -1.9048878,0 -3.6421151,0.305591 -4.1738281,2.525391 c -0.613326,2.5444 -0.640531,4.132292 0,6.789062 C 7.0978769,25.292053 8.3082859,26 10.173828,26 L 12,26 l 0,-2.349609 C 12,21.445581 13.906527,19.25 16.171875,19.25 l 7.142578,0 C 25.171739,19.25 27,17.970709 27,16.105469 l 0,-6.3613284 c 0,-1.8103 -1.872776,-3.1685731 -3.685547,-3.4707031 C 22.166941,6.0824175 20.977883,5.99469 19.835938,6 Z m 0.0039,1 l 0.002,0 c 1.086921,-0.005 2.223172,0.079096 3.308594,0.2597656 c 0.721766,0.12029 1.495539,0.47208 2.03125,0.9375 C 25.717271,8.6626756 26,9.1838306 26,9.7441406 l 0,6.3613284 c 0,0.60589 -0.274771,1.093657 -0.771484,1.492187 C 24.731802,17.996176 24.013498,18.25 23.314453,18.25 l -7.142578,0 C 13.260392,18.25 11,20.869111 11,23.650391 L 11,25 l -0.826172,0 C 9.367553,25 8.8277017,24.848184 8.4570312,24.583984 C 8.0863609,24.319794 7.7944067,23.907648 7.5957031,23.080078 c -0.6177403,-2.56224 -0.5926939,-3.861512 0,-6.320312 l 0,-0.002 c 0.2108081,-0.88008 0.53045,-1.185931 1.03125,-1.425781 C 9.1277532,15.092221 9.8979058,15 10.796875,15 L 21,15 l 0,-3 l -7,0 l 0,-2.3027344 l -0.0039,-0.044922 c -0.07192,-0.77238 0.04635,-1.1194575 0.396484,-1.4609376 c 0.35013,-0.34149 1.109132,-0.7013237 2.423828,-0.9335937 C 17.711999,7.0993125 18.75231,7.00583 19.839844,7 Z"
       transform="translate(0,260)"
       id="path4349"
       inkscape:connector-curvature="0" />
    <path
       style="display:inline;fill:#ffffff;fill-opacity:1"
       d="m 16.499999,268 c 0.825701,0 1.5,0.67416 1.5,1.50391 c -2e-6,0.82682 -0.674299,1.49609 -1.5,1.49609 c -0.828665,0 -1.5,-0.66927 -1.5,-1.49609 c -4e-6,-0.82975 0.671335,-1.50391 1.5,-1.50391 z"
       id="path4345"
       inkscape:connector-curvature="0" />
  </g>
</svg>
