<?xml version="1.0" encoding="UTF-8" standalone="no"?>
<!-- Created with Inkscape (http://www.inkscape.org/) -->

<svg
   xmlns:dc="http://purl.org/dc/elements/1.1/"
   xmlns:cc="http://creativecommons.org/ns#"
   xmlns:rdf="http://www.w3.org/1999/02/22-rdf-syntax-ns#"
   xmlns:svg="http://www.w3.org/2000/svg"
   xmlns="http://www.w3.org/2000/svg"
   xmlns:sodipodi="http://sodipodi.sourceforge.net/DTD/sodipodi-0.dtd"
   xmlns:inkscape="http://www.inkscape.org/namespaces/inkscape"
   width="40"
   height="40"
   viewBox="0 0 40 40"
   id="svg2"
   version="1.1"
   inkscape:version="0.91 r13725"
   sodipodi:docname="Runkeeper Logo.svg"
   inkscape:export-filename="/Users/ratface/Sites/robruana.github.io/images/runkeeper-logo_2x.png"
   inkscape:export-xdpi="180"
   inkscape:export-ydpi="180">
  <defs
     id="defs4" />
  <sodipodi:namedview
     id="base"
     pagecolor="#808080"
     bordercolor="#666666"
     borderopacity="1.0"
     inkscape:pageopacity="0"
     inkscape:pageshadow="2"
     inkscape:zoom="11.313709"
     inkscape:cx="11.909019"
     inkscape:cy="17.288407"
     inkscape:document-units="px"
     inkscape:current-layer="g4139"
     showgrid="false"
     showguides="true"
     inkscape:guide-bbox="true"
     units="px"
     inkscape:window-width="1440"
     inkscape:window-height="851"
     inkscape:window-x="0"
     inkscape:window-y="1"
     inkscape:window-maximized="1"
     inkscape:snap-bbox="true"
     inkscape:bbox-paths="true"
     inkscape:bbox-nodes="true"
     inkscape:snap-bbox-edge-midpoints="true"
     inkscape:snap-bbox-midpoints="true"
     inkscape:object-paths="true"
     inkscape:snap-intersection-paths="true"
     inkscape:object-nodes="true"
     inkscape:snap-smooth-nodes="true"
     inkscape:snap-midpoints="true"
     inkscape:snap-global="false" />
  <metadata
     id="metadata7">
    <rdf:RDF>
      <cc:Work
         rdf:about="">
        <dc:format>image/svg+xml</dc:format>
        <dc:type
           rdf:resource="http://purl.org/dc/dcmitype/StillImage" />
        <dc:title />
      </cc:Work>
    </rdf:RDF>
  </metadata>
  <g
     inkscape:label="Logo"
     inkscape:groupmode="layer"
     id="g4139"
     transform="translate(0,-1012.3622)"
     style="display:inline">
    <path
       style="opacity:1;fill:#ffffff;fill-opacity:1;fill-rule:nonzero;stroke:none;stroke-width:2;stroke-linecap:round;stroke-linejoin:round;stroke-miterlimit:4;stroke-dasharray:none;stroke-opacity:1"
       d="m 8.2606735,1018.8634 c -0.03627,7e-4 -0.06946,0.014 -0.116543,0.04 c -0.151149,0.085 -0.283778,0.3205 -0.251876,0.4476 c 0.01398,0.056 0.618188,0.7231 1.342676,1.4831 c 0.724485,0.7599 1.3891265,1.487 1.4769265,1.6158 c 0.0878,0.1288 0.211886,0.3962 0.275727,0.5941 c 0.165349,0.5128 0.272089,0.6856 0.787066,1.2739 c 1.05178,1.2014 1.546713,1.9429 2.083126,3.0026 c 0.398658,0.7876 0.776046,1.7216 0.776046,1.7216 c 0,0 -0.554765,-0.5921 -1.088813,-0.9298 l -0.399496,-0.2524 l -0.146897,0.1655 c -0.08456,0.095 -0.303718,0.3612 -0.495622,0.6006 c -2.086425,2.6022 -3.5836705,5.5154 -4.2979715,8.3619 c -0.619364,2.4683 -0.603774,3.9952 0.05366,5.2591 c 0.229554,0.4412 0.833688,1.034 1.270763,1.2467 c 0.367046,0.1786 0.6862345,0.2798 1.0680345,0.3391 c 0.625869,0.097 1.244487,-0.038 2.0871,-0.4544 c 0.679455,-0.3362 1.234295,-0.7273 1.82059,-1.2838 c 1.823104,-1.7302 2.919636,-4.1369 3.251983,-7.1369 c 0.06427,-0.5804 0.06471,-2.0093 7e-4,-2.6327 c -0.146547,-1.4279 -0.503103,-2.9141 -1.031896,-4.3011 c -0.08063,-0.2115 -0.190082,-0.5153 -0.190082,-0.5153 c 0,0 0.400567,-0.4371 1.027199,-0.9349 c 1.285929,-1.0215 2.886694,-1.8175 4.239249,-2.1078 c 0.528253,-0.1134 1.723503,-0.1608 2.156485,-0.086 c 0.817391,0.142 1.59234,0.6476 2.234902,1.4577 c 0.570594,0.7194 0.862075,1.7569 0.813808,2.8966 c -0.03647,0.8611 -0.190486,1.4605 -0.570605,2.2195 c -0.582729,1.1637 -1.798531,2.1282 -3.369609,2.6733 c -0.570199,0.1978 -1.12431,0.2633 -1.918702,0.2267 c -0.943617,-0.043 -1.089332,-0.1103 -1.087186,-0.5024 c 0.0016,-0.2882 0.142663,-0.4241 0.394798,-0.4241 c 0.175834,0 0.380739,0.063 0.387752,0.2952 c 0.004,0.1335 0.01866,0.1421 0.407808,0.187 c 0.252794,0.029 1.071827,-0.019 1.071827,-0.063 c 0,-0.064 -0.368998,-0.4469 -0.525975,-0.546 c -0.26162,-0.1651 -0.675132,-0.2851 -0.992146,-0.2878 c -0.515773,0 -0.949359,0.1712 -1.34376,0.5442 c -0.277403,0.2624 -0.424569,0.4982 -0.53754,0.8612 c -0.193718,0.6224 -0.0085,1.3158 0.487671,1.826 c 0.390191,0.4012 0.844564,0.543 1.889069,0.5895 c 1.929721,0.086 3.799708,-0.5471 5.287407,-1.7906 c 0.519205,-0.4339 1.261553,-1.2265 1.5595,-1.6648 c 0.900983,-1.3255 1.37202,-3.117 1.229566,-4.6765 c -0.121307,-1.3279 -0.463809,-2.3934 -1.068034,-3.3221 c -0.942318,-1.4484 -2.256527,-2.3572 -3.935335,-2.7209 c -0.603128,-0.1307 -1.771227,-0.1612 -2.442149,-0.064 c -2.128909,0.309 -4.320125,1.3719 -6.12055,2.9688 c -0.17112,0.1518 -0.421178,0.363 -0.421178,0.363 c 0,0 -0.10853,-0.1932 -0.205079,-0.3619 c -0.356837,-0.6237 -1.994939,-2.5646 -2.327593,-2.7715 c -0.07246,-0.045 -0.356548,-0.1421 -0.631136,-0.2158 c -0.94721,-0.254 -0.948509,-0.2551 -2.4078185,-1.7801 c -0.781453,-0.8167 -1.338478,-1.3642 -1.42342,-1.3994 c -0.05891,-0.024 -0.09816,-0.036 -0.13443,-0.036 z m 6.4745125,10.5732 c 0,0 0.09805,0.2344 0.225496,0.7239 c 0.258903,0.9942 0.382015,1.7839 0.446294,2.8629 c 0.110141,1.8488 -0.177051,3.4903 -0.896382,5.1248 c -0.730885,1.6607 -2.102907,3.1111 -3.216929,3.4007 c -0.459826,0.1195 -0.702997,0.079 -0.910476,-0.1501 c -0.235292,-0.2605 -0.297862,-0.5222 -0.320717,-1.3411 c -0.02836,-1.0163 0.08985,-1.7576 0.490201,-3.0758 c 0.55811,-1.8376 2.097309,-4.8235 3.316125,-6.4326 c 0.488406,-0.6448 0.866388,-1.1127 0.866388,-1.1127 z m 19.128659,3.4009 c -0.1531,0 -0.304703,0.1168 -0.373658,0.303 c -0.03787,0.1022 -0.27457,0.9385 -0.525976,1.8582 l -0.457135,1.672 l -0.235975,0.3079 c -0.129744,0.1694 -0.363473,0.4206 -0.519473,0.5584 c -0.254008,0.2243 -0.3163,0.3152 -0.597165,0.8703 c -0.172493,0.3409 -0.432622,0.7944 -0.578014,1.0075 c -0.629265,0.9224 -1.51811,1.5756 -2.493102,1.8324 c -0.655775,0.1725 -1.62215,0.1729 -2.30013,7e-4 c -0.396237,-0.1007 -1.006699,-0.4265 -1.368334,-0.7302 c -0.765657,-0.643 -1.4013,-1.791 -1.698627,-3.068 l -0.05312,-0.2286 l -0.470144,0 c -0.487058,-0.022 -1.256845,-0.1112 -1.816796,-0.2741 l -0.359022,-0.1044 l 4e-4,0.1349 c 2e-4,0.074 0.04886,0.3676 0.10805,0.6521 c 0.309628,1.4882 0.906579,2.8075 1.738197,3.8414 c 0.992898,1.2344 2.417369,1.975 4.245754,2.2071 c 0.08377,0.011 0.475445,0.012 0.870364,0 c 1.090342,-0.024 1.97664,-0.2338 2.937408,-0.6957 c 1.539824,-0.7402 2.846858,-2.2232 3.437727,-3.9006 c 0.127353,-0.3615 0.128661,-0.4365 0.01879,-1.2007 c -0.08186,-0.5693 -0.03418,-0.8687 0.456051,-2.8564 c 0.229566,-0.9308 0.417384,-1.7494 0.417384,-1.819 c 0,-0.1453 -0.155035,-0.3227 -0.317827,-0.3635 c -0.02169,-0.01 -0.04372,-0.01 -0.06559,-0.01 z"
       id="path4239"
       inkscape:connector-curvature="0" />
    <circle
       style="opacity:1;fill:none;fill-opacity:1;fill-rule:nonzero;stroke:#ffffff;stroke-width:1.25;stroke-linecap:round;stroke-linejoin:round;stroke-miterlimit:4;stroke-dasharray:none;stroke-opacity:1"
       id="path4136"
       cx="20"
       cy="1032.3622"
       r="19.375" />
  </g>
</svg>
