<?xml version="1.0" encoding="UTF-8" standalone="no"?>
<!-- Created with Inkscape (http://www.inkscape.org/) -->

<svg
   xmlns:dc="http://purl.org/dc/elements/1.1/"
   xmlns:cc="http://creativecommons.org/ns#"
   xmlns:rdf="http://www.w3.org/1999/02/22-rdf-syntax-ns#"
   xmlns:svg="http://www.w3.org/2000/svg"
   xmlns="http://www.w3.org/2000/svg"
   xmlns:sodipodi="http://sodipodi.sourceforge.net/DTD/sodipodi-0.dtd"
   xmlns:inkscape="http://www.inkscape.org/namespaces/inkscape"
   width="40"
   height="40"
   viewBox="0 0 40 40"
   id="svg2"
   version="1.1"
   inkscape:version="0.91 r13725"
   sodipodi:docname="Twitter Logo.svg"
   inkscape:export-filename="/Users/ratface/Sites/robruana.github.io/images/twitter-logo_2x.png"
   inkscape:export-xdpi="180"
   inkscape:export-ydpi="180">
  <defs
     id="defs4" />
  <sodipodi:namedview
     id="base"
     pagecolor="#808080"
     bordercolor="#666666"
     borderopacity="1.0"
     inkscape:pageopacity="0"
     inkscape:pageshadow="2"
     inkscape:zoom="5.6568544"
     inkscape:cx="-4.0791015"
     inkscape:cy="-9.7230026"
     inkscape:document-units="px"
     inkscape:current-layer="g4139"
     showgrid="false"
     showguides="true"
     inkscape:guide-bbox="true"
     units="px"
     inkscape:window-width="1440"
     inkscape:window-height="851"
     inkscape:window-x="0"
     inkscape:window-y="1"
     inkscape:window-maximized="1"
     inkscape:snap-bbox="true"
     inkscape:bbox-paths="true"
     inkscape:bbox-nodes="true"
     inkscape:snap-bbox-edge-midpoints="true"
     inkscape:snap-bbox-midpoints="true"
     inkscape:object-paths="true"
     inkscape:snap-intersection-paths="true"
     inkscape:object-nodes="true"
     inkscape:snap-smooth-nodes="true"
     inkscape:snap-midpoints="true" />
  <metadata
     id="metadata7">
    <rdf:RDF>
      <cc:Work
         rdf:about="">
        <dc:format>image/svg+xml</dc:format>
        <dc:type
           rdf:resource="http://purl.org/dc/dcmitype/StillImage" />
        <dc:title />
      </cc:Work>
    </rdf:RDF>
  </metadata>
  <g
     style="display:none"
     transform="translate(0,-1012.3622)"
     id="g4134"
     inkscape:groupmode="layer"
     inkscape:label="Encircled">
    <path
       sodipodi:nodetypes="sssssscccccsscsccscsccsccss"
       inkscape:connector-curvature="0"
       id="path4136"
       transform="translate(0,652.36221)"
       d="M 200,0 C 89.54305,0 0,89.54305 0,200 c 0,110.45695 89.54305,200 200,200 c 110.45695,0 200,-89.54305 200,-200 C 400,89.54305 310.45695,0 200,0 Z m 59.0632,81.324023 c 18.12021,0 34.49238,7.649167 45.98269,19.893647 c 14.35091,-2.825053 27.83336,-8.067562 40.0072,-15.287581 c -4.70256,14.711031 -14.6945,27.056821 -27.70036,34.853371 c 12.74208,-1.52307 24.88557,-4.90643 36.1828,-9.91784 c -8.44584,12.63292 -19.12554,23.7298 -31.4348,32.61031 c 0.12053,2.70376 0.18393,5.41795 0.18393,8.14858 c 0,83.25244 -63.36927,179.24873 -179.24674,179.24873 c -35.57738,0 -68.692977,-10.43195 -96.573454,-28.30811 c 4.928501,0.58343 9.944664,0.88163 15.02969,0.88163 c 29.517165,0 56.680134,-10.06854 78.241154,-26.96667 C 112.16636,275.97341 88.899426,257.75631 80.882015,232.72845 c 3.847457,0.73697 7.79384,1.12953 11.853023,1.12953 c 5.745148,0 11.313182,-0.77015 16.599032,-2.21108 C 80.513873,225.85937 58.795289,200.39774 58.795289,169.87484 c 0,-0.26869 0.0019,-0.52988 0.008,-0.79166 c 8.493596,4.71816 18.207137,7.55242 28.534019,7.87868 C 70.433176,165.66548 59.313071,146.38323 59.313071,124.52589 c 0,-11.5459 3.105534,-22.36844 8.52842,-31.672707 C 98.914047,130.96843 145.33437,156.05255 197.69296,158.67954 c -1.07321,-4.61068 -1.63131,-9.42225 -1.63131,-14.35997 c 0,-34.79119 28.21052,-62.995547 63.00155,-62.995547 z"
       style="opacity:1;fill:#ffffff;fill-opacity:1;fill-rule:nonzero;stroke:none;stroke-width:2;stroke-linecap:round;stroke-linejoin:round;stroke-miterlimit:4;stroke-dasharray:none;stroke-opacity:1" />
  </g>
  <g
     inkscape:label="Logo"
     inkscape:groupmode="layer"
     id="g4139"
     transform="translate(0,-1012.3622)"
     style="display:inline">
    <path
       style="opacity:1;fill:#ffffff;fill-opacity:1;fill-rule:nonzero;stroke:none;stroke-width:2;stroke-linecap:round;stroke-linejoin:round;stroke-miterlimit:4;stroke-dasharray:none;stroke-opacity:1"
       d="m 25.789455,1021.6876 c 1.62277,0 3.088993,0.685 4.118017,1.7816 c 1.285208,-0.253 2.49264,-0.7225 3.582878,-1.3691 c -0.421142,1.3175 -1.315978,2.4231 -2.480729,3.1213 c 1.141128,-0.1364 2.228648,-0.4394 3.240381,-0.8882 c -0.756375,1.1314 -1.712804,2.1252 -2.81517,2.9205 c 0.0108,0.2421 0.01647,0.4852 0.01647,0.7297 c 0,7.4558 -5.675086,16.0528 -16.052588,16.0528 c -3.186161,0 -6.151855,-0.9342 -8.648714,-2.5352 c 0.441376,0.052 0.890602,0.079 1.345996,0.079 c 2.643434,0 5.076035,-0.9017 7.00695,-2.415 c -2.46896,-0.045 -4.552649,-1.6768 -5.270654,-3.9182 c 0.344562,0.066 0.697983,0.1012 1.061507,0.1012 c 0.514511,0 1.013161,-0.069 1.486539,-0.1981 c -2.581016,-0.5183 -4.526041,-2.7985 -4.526041,-5.532 c 0,-0.024 1.7e-4,-0.047 7.2e-4,-0.071 c 0.760651,0.4225 1.630555,0.6764 2.555387,0.7056 c -1.513867,-1.0117 -2.509737,-2.7385 -2.509737,-4.696 c 0,-1.034 0.278119,-2.0032 0.76377,-2.8365 c 2.782728,3.4135 6.939938,5.6599 11.628954,5.8952 c -0.09611,-0.4129 -0.146093,-0.8438 -0.146093,-1.286 c 0,-3.1158 2.526416,-5.6417 5.642155,-5.6417 z"
       id="path4280"
       inkscape:connector-curvature="0" />
    <circle
       style="opacity:1;fill:none;fill-opacity:1;fill-rule:nonzero;stroke:#ffffff;stroke-width:1.25;stroke-linecap:round;stroke-linejoin:round;stroke-miterlimit:4;stroke-dasharray:none;stroke-opacity:1"
       id="path4137"
       cx="20"
       cy="1032.3622"
       r="19.375" />
  </g>
</svg>
